<?xml version="1.0" standalone="no"?><!DOCTYPE svg PUBLIC "-//W3C//DTD SVG 1.1//EN" "http://www.w3.org/Graphics/SVG/1.1/DTD/svg11.dtd"><svg t="1720592352605" class="icon" viewBox="0 0 1024 1024" version="1.1" xmlns="http://www.w3.org/2000/svg" p-id="2783" id="mx_n_1720592352606" xmlns:xlink="http://www.w3.org/1999/xlink" width="200" height="200"><path d="M670.929204 666.150538c72.395699 0 131.083011 60.388473 131.083011 134.88172s-58.687312 134.88172-131.083011 134.88172c-72.390194 0-131.077505-60.388473-131.077505-134.88172s58.687312-134.88172 131.083011-134.88172z m-312.353032 0c72.390194 0 131.077505 60.388473 131.077505 134.88172S430.96086 935.913978 358.565161 935.913978c-72.390194 0-131.077505-60.388473-131.077505-134.88172s58.687312-134.88172 131.083011-134.88172z m312.353032 66.064516c-35.476645 0-65.012989 30.389677-65.012989 68.817204s29.536344 68.817204 65.018495 68.817204c35.47114 0 65.012989-30.389677 65.012989-68.817204s-29.541849-68.817204-65.018495-68.817204z m-312.353032 0c-35.476645 0-65.018495 30.389677-65.018495 68.817204s29.541849 68.817204 65.018495 68.817204c35.476645 0 65.012989-30.389677 65.012989-68.817204S394.052817 732.215054 358.565161 732.215054z m312.353032-352.344086c72.395699 0 131.083011 59.155269 131.083011 132.129032s-58.687312 132.129032-131.083011 132.129032c-72.390194 0-131.077505-59.155269-131.077505-132.129032s58.687312-132.129032 131.083011-132.129032z m-312.353032 0C430.96086 379.870968 489.648172 439.026237 489.648172 512s-58.687312 132.129032-131.083011 132.129032c-72.390194 0-131.077505-59.155269-131.077505-132.129032s58.687312-132.129032 131.083011-132.129032z m312.353032 66.064516c-35.784946 0-65.012989 29.459269-65.012989 66.064516s29.228043 66.064516 65.018495 66.064516c35.784946 0 65.012989-29.459269 65.012989-66.064516s-29.233548-66.064516-65.018495-66.064516z m-312.353032 0c-35.784946 0-65.018495 29.459269-65.018495 66.064516s29.233548 66.064516 65.018495 66.064516c35.784946 0 65.012989-29.459269 65.012989-66.064516s-29.228043-66.064516-65.018494-66.064516z m0-357.849462C430.96086 88.086022 489.648172 148.474495 489.648172 222.967742S430.96086 357.849462 358.565161 357.849462c-72.390194 0-131.077505-60.388473-131.077505-134.88172S286.180473 88.086022 358.576172 88.086022z m312.353032 0c72.395699 0 131.083011 60.388473 131.083011 134.88172S743.324903 357.849462 670.929204 357.849462C598.544516 357.849462 539.857204 297.460989 539.857204 222.967742S598.544516 88.086022 670.940215 88.086022zM358.576172 154.150538c-35.476645 0-65.018495 30.389677-65.018495 68.817204S323.099527 291.784946 358.576172 291.784946c35.476645 0 65.012989-30.389677 65.012989-68.817204S394.052817 154.150538 358.565161 154.150538z m312.353032 0c-35.476645 0-65.012989 30.389677-65.012989 68.817204S635.452559 291.784946 670.940215 291.784946c35.47114 0 65.012989-30.389677 65.012989-68.817204S706.405849 154.150538 670.929204 154.150538z" fill="#6A64F1" p-id="2784"></path></svg>