<?xml version="1.0" standalone="no"?><!DOCTYPE svg PUBLIC "-//W3C//DTD SVG 1.1//EN" "http://www.w3.org/Graphics/SVG/1.1/DTD/svg11.dtd"><svg t="1719904475474" class="icon" viewBox="0 0 1024 1024" version="1.1" xmlns="http://www.w3.org/2000/svg" p-id="7321" width="200" height="200" xmlns:xlink="http://www.w3.org/1999/xlink"><path d="M815.52234 955.727057H205.344297c-76.961836 0-139.572826-62.615083-139.572826-139.572826V205.976188c0-76.961836 62.609966-139.571802 139.572826-139.571802h610.178043c76.956719 0 139.572826 62.609966 139.572825 139.571802v610.178043c0 76.957743-62.616106 139.572826-139.572825 139.572826zM205.344297 117.489878c-48.795333 0-88.48631 39.692001-88.486311 88.48631v610.178043c0 48.789193 39.690978 88.48631 88.486311 88.486311h610.178043c48.790216 0 88.487334-39.697117 88.487333-88.486311V205.976188c0-48.794309-39.697117-88.48631-88.487333-88.48631H205.344297z m0 0" p-id="7322" fill="#707070"></path><path d="M534.763958 609.691973c-27.709085 0-55.443753-10.305717-76.898391-31.033807-10.145058-9.798157-10.42749-25.969465-0.624217-36.115546 9.79918-10.144034 25.969465-10.426467 36.114523-0.62217 23.64349 22.844288 61.464887 22.186302 84.304058-1.459235l153.636122-159.037133c11.067057-11.456936 17.009396-26.535353 16.73208-42.456974-0.273223-15.921621-6.731308-30.786167-18.188244-41.8522-11.450796-11.066033-26.529213-17.037025-42.450835-16.731056-15.863293 0.273223-30.674627 6.684236-41.72531 18.057261l-79.199807 84.5957c-9.642614 10.296507-25.808806 10.831696-36.103266 1.189082-10.296507-9.641591-10.832719-25.803689-1.190105-36.104289l79.351256-84.752266c0.086981-0.097214 0.180102-0.189312 0.273223-0.286526 20.547988-21.269419 48.146557-33.262568 77.707826-33.774221 29.597085-0.511653 57.564044 10.520611 78.834486 31.068599 21.263279 20.542872 33.261545 48.140417 33.774221 77.707826 0.506537 29.562293-10.525728 57.560974-31.068599 78.82937L614.402763 575.951521c-21.683858 22.450315-50.65161 33.736359-79.638805 33.740452z m0 0" p-id="7323" fill="#707070"></path><path d="M332.411297 792.803407c-27.709085 0-55.438637-10.30674-76.897367-31.03483-21.265326-20.543895-33.262568-48.14144-33.774222-77.707826-0.508583-29.567409 10.524704-57.558927 31.067577-78.82937l153.637146-159.038156c20.542872-21.269419 48.140417-33.262568 77.707826-33.773198 29.567409-0.51677 57.55995 10.520611 78.829369 31.064506 10.145058 9.80225 10.423397 25.972535 0.624217 36.117593-9.798157 10.145058-25.969465 10.42749-36.118615 0.624217-11.45182-11.066033-26.526143-16.999163-42.451858-16.73208-15.926738 0.273223-30.786167 6.732331-41.8522 18.189268L289.55114 640.726803c-11.06808 11.450796-17.009396 26.530236-16.732079 42.450835 0.273223 15.925714 6.733355 30.786167 18.189267 41.8522 23.623024 22.825868 61.415768 22.186302 84.259033-1.410116l79.936587-83.801615c9.734712-10.207479 25.900903-10.593266 36.109406-0.853437 10.208503 9.736758 10.594289 25.901926 0.853437 36.110429l-80.004125 83.874269c-0.033769 0.038886-0.073678 0.077771-0.112564 0.116657-21.683858 22.446221-50.646494 33.737382-79.638805 33.737382z m0 0" p-id="7324" fill="#707070"></path></svg>